<svg width="12" height="12" viewBox="0 0 12 12" fill="none" xmlns="http://www.w3.org/2000/svg">
<path d="M4.38462 10.6154C4.28205 10.615 4.18064 10.5931 4.08669 10.5509C3.99274 10.5087 3.90827 10.4472 3.83852 10.3701L0.20278 6.40768C0.0668714 6.2593 -0.00593442 6.06167 0.000378846 5.85829C0.00350486 5.75759 0.0259611 5.6585 0.0664653 5.56668C0.10697 5.47487 0.164728 5.39213 0.236444 5.32318C0.30816 5.25424 0.392429 5.20044 0.484439 5.16486C0.576448 5.12928 0.674397 5.11262 0.772693 5.11582C0.97121 5.12229 1.15909 5.20929 1.295 5.35767L4.37714 8.7223L10.6686 1.67115C10.7325 1.58969 10.8119 1.52247 10.902 1.47361C10.9921 1.42475 11.0911 1.39528 11.1927 1.38702C11.2944 1.37875 11.3966 1.39186 11.4931 1.42555C11.5896 1.45923 11.6784 1.51277 11.754 1.58289C11.8296 1.65301 11.8904 1.73821 11.9327 1.83328C11.975 1.92835 11.9978 2.03126 11.9999 2.13571C12.0019 2.24016 11.9831 2.34393 11.9445 2.44065C11.906 2.53737 11.8486 2.62501 11.7758 2.69816L4.93821 10.3625C4.86912 10.4409 4.78494 10.5039 4.69096 10.5474C4.59698 10.5909 4.49523 10.6141 4.39211 10.6154H4.38462Z" fill="white"/>
</svg>
